HIERARCHY
ROOT Hips
{
	OFFSET 0.000000 88.474243 0.000000
	CHANNELS 6 Xposition Yposition Zposition Zrotation Yrotation Xrotation 
	JOINT Hips_Spine
	{
		OFFSET 0.000000 0.000000 0.000000
		CHANNELS 3 Zrotation Yrotation Xrotation
		JOINT Spine
		{
			OFFSET 0.005100 8.711998 -0.691000
			CHANNELS 3 Zrotation Yrotation Xrotation
			JOINT Spine1
			{
				OFFSET -0.009200 8.660301 -1.275000
				CHANNELS 3 Zrotation Yrotation Xrotation
				JOINT Spine2
				{
					OFFSET 0.006300 9.852501 -1.857000
					CHANNELS 3 Zrotation Yrotation Xrotation
					JOINT Spine2_Neck
					{
						OFFSET 0.000000 0.000000 0.000000
						CHANNELS 3 Zrotation Yrotation Xrotation
						JOINT Neck
						{
							OFFSET 0.016300 11.420799 -0.263300
							CHANNELS 3 Zrotation Yrotation Xrotation
							End Site #name: Head
							{
								OFFSET -0.019200 9.262405 2.362500
							}
						}
					}
					JOINT Spine2_LeftShoulder
					{
						OFFSET 0.000000 0.000000 0.000000
						CHANNELS 3 Zrotation Yrotation Xrotation
						JOINT LeftShoulder
						{
							OFFSET 5.616900 6.732201 -0.345700
							CHANNELS 3 Zrotation Yrotation Xrotation
							JOINT LeftArm
							{
								OFFSET 10.664888 -0.183372 -2.440700
								CHANNELS 3 Zrotation Yrotation Xrotation
								JOINT LeftForeArm
								{
									OFFSET 27.459126 0.000000 0.000000
									CHANNELS 3 Zrotation Yrotation Xrotation
									End Site #name: LeftHand
									{
										OFFSET 21.306858 0.000000 0.000000
									}
								}
							}
						}
					}
					JOINT Spine2_RightShoulder
					{
						OFFSET 0.000000 0.000000 0.000000
						CHANNELS 3 Zrotation Yrotation Xrotation
						JOINT RightShoulder
						{
							OFFSET -5.580300 6.737503 -0.344400
							CHANNELS 3 Zrotation Yrotation Xrotation
							JOINT RightArm
							{
								OFFSET -10.679335 -0.188484 -2.383900
								CHANNELS 3 Zrotation Yrotation Xrotation
								JOINT RightForeArm
								{
									OFFSET -27.503529 0.000000 0.000000
									CHANNELS 3 Zrotation Yrotation Xrotation
									End Site #name: RightHand
									{
										OFFSET -21.306808 0.000000 0.000000
									}
								}
							}
						}
					}
				}
			}
		}
	}
	JOINT Hips_LeftUpLeg
	{
		OFFSET 0.000000 0.000000 0.000000
		CHANNELS 3 Zrotation Yrotation Xrotation
		JOINT LeftUpLeg
		{
			OFFSET 6.857700 -6.739601 0.312100
			CHANNELS 3 Zrotation Yrotation Xrotation
			JOINT LeftLeg
			{
				OFFSET -0.367590 -34.731552 -4.572400
				CHANNELS 3 Zrotation Yrotation Xrotation
				End Site #name: LeftFoot
				{
					OFFSET 0.367590 -34.656704 -6.067400
				}
			}
		}
	}
	JOINT Hips_RightUpLeg
	{
		OFFSET 0.000000 0.000000 0.000000
		CHANNELS 3 Zrotation Yrotation Xrotation
		JOINT RightUpLeg
		{
			OFFSET -6.876100 -6.733299 0.301000
			CHANNELS 3 Zrotation Yrotation Xrotation
			JOINT RightLeg
			{
				OFFSET 0.347353 -34.795158 -4.515900
				CHANNELS 3 Zrotation Yrotation Xrotation
				End Site #name: RightFoot
				{
					OFFSET -0.347353 -34.589367 -6.070300
				}
			}
		}
	}
}
MOTION
Frames: 17
Frame Time: 0.041667
-0.005577 -0.036442 -0.033118 -6.985537 23.295441 -2.760393 0.000000 -0.000000 0.000000 -1.442395 -2.030399 -1.578069 2.784472 -0.206523 2.907678 0.000000 0.000000 0.000000 2.933468 -0.475706 0.761855 -2.270726 -4.409683 1.615639 1.648974 0.167862 0.920937 -4.323562 -12.920351 2.311355 -83.081013 7.121778 -4.573473 0.334023 -7.009118 1.785941 2.424440 -0.224329 1.058017 10.580149 2.046713 6.517755 55.916773 -0.170732 -11.112289 -8.011962 63.647133 -3.688957 0.000000 -0.000000 -0.000000 1.612661 13.270263 -18.433827 -3.204941 -16.687729 3.803905 -0.000000 0.000000 -0.000000 1.615553 -0.310298 -11.360056 1.980317 -6.733249 11.637987 
-0.405530 -0.149821 -0.129382 -7.599691 22.466130 -2.036266 0.000000 -0.000000 0.000000 -2.018195 -4.697949 -0.317018 4.117252 0.055849 1.906296 0.000000 0.000000 0.000000 3.052650 -0.372201 1.869854 -1.366409 -5.725694 -1.644838 2.732289 0.180215 0.725831 -3.305407 -15.912525 2.320998 -85.712196 -2.301711 -11.590472 -1.538769 -0.918834 0.243907 3.462928 -0.326970 2.447294 14.182716 -0.697540 5.802223 57.296225 1.883474 -19.126895 -5.171513 53.455326 -1.034981 0.000000 -0.000000 -0.000000 2.637575 15.124562 -18.455450 -2.888712 -15.654572 2.640804 -0.000000 0.000000 -0.000000 1.202017 4.535512 -9.197954 4.391092 -3.151714 8.805232 
-0.514803 -0.219510 -0.194322 -8.452876 23.011174 -2.738104 0.000000 -0.000000 0.000000 -1.996966 -5.961818 -0.517922 4.838530 0.150555 2.080683 0.000000 0.000000 0.000000 3.783699 -0.597732 2.581501 -1.814949 -7.954363 -2.307490 2.948916 0.391216 1.377657 -1.430487 -16.046879 1.818083 -86.800871 -3.332807 -19.578241 -1.630274 7.246112 -0.095999 4.093069 -0.396376 2.567940 15.980199 -3.725587 4.470243 57.113860 2.697428 -19.628555 -5.898357 59.066365 -1.388898 0.000000 0.000000 -0.000000 3.611173 16.367503 -17.429873 -3.002641 -15.772734 3.876636 -0.000000 0.000000 -0.000000 1.509981 3.418495 -6.832089 6.037783 -0.461246 6.562824 
-0.586439 -0.303412 -0.270302 -8.993800 22.894308 -3.703036 0.000000 -0.000000 0.000000 -0.735884 -5.955433 -0.771584 4.942966 -0.073320 2.485443 0.000000 0.000000 0.000000 4.037579 -0.749267 3.192760 -1.771867 -8.590520 -2.742203 3.001258 0.329505 1.775413 -0.702925 -14.563251 0.798466 -88.898106 -4.622323 -23.485766 -1.841332 12.293048 -0.240884 4.224259 -0.685262 2.903926 16.174134 -7.690758 4.139350 55.832045 4.495005 -22.748112 -7.899087 69.462426 -3.567456 0.000000 0.000000 -0.000000 4.198520 17.089299 -16.355489 -2.611013 -15.888402 3.887222 -0.000000 0.000000 -0.000000 1.951307 2.416923 -5.321065 7.205499 1.582351 5.577462 
-0.654140 -0.377875 -0.349058 -9.282045 22.177955 -4.099753 0.000000 -0.000000 0.000000 0.535604 -6.026799 -0.428930 4.992708 -0.176149 2.877520 0.000000 0.000000 0.000000 4.084228 -0.819120 3.834046 -1.542457 -9.083247 -3.044215 2.982436 0.316081 2.296333 -0.470333 -12.859367 -0.161525 -90.280644 -5.583777 -25.725938 -1.843890 15.819934 -0.177969 4.213457 -0.886412 3.358776 16.884509 -10.515836 3.708983 54.896998 6.150494 -25.012472 -15.613412 81.101840 -11.621444 0.000000 0.000000 -0.000000 4.579734 17.536981 -15.559533 -2.437779 -16.124475 3.656363 -0.000000 0.000000 -0.000000 2.165012 0.150692 -4.431210 7.595958 2.777614 5.284375 
-0.710301 -0.438000 -0.425888 -9.362258 21.026209 -3.908186 0.000000 -0.000000 0.000000 1.712304 -5.641863 -0.230520 4.930825 -0.247691 3.255186 0.000000 0.000000 0.000000 4.081776 -0.836092 4.371345 -1.691332 -9.503325 -2.990323 2.911676 0.244744 2.863709 -0.800530 -12.197664 -0.278092 -90.568163 -6.057989 -26.627935 -1.767454 17.642702 -0.074262 4.176086 -0.981839 3.739504 17.443309 -11.103402 3.772569 55.133173 6.825748 -25.405683 -87.661860 87.834628 -83.856797 0.000000 0.000000 -0.000000 4.753152 17.568584 -15.233648 -2.403335 -16.468869 3.293438 -0.000000 0.000000 -0.000000 2.416207 -1.615296 -4.279165 7.288469 2.988936 5.472379 
-0.753907 -0.490513 -0.496408 -9.347084 19.976426 -3.364958 0.000000 -0.000000 0.000000 2.610734 -5.108365 -0.153462 4.784844 -0.224561 3.520713 0.000000 0.000000 0.000000 4.052720 -0.807605 4.646366 -1.955963 -9.988563 -2.839546 2.824131 0.252551 3.258322 -1.328161 -11.593753 -0.288577 -90.307941 -6.189162 -27.000081 -1.716664 18.136219 0.027647 4.117757 -0.979293 3.944446 17.776505 -11.153413 4.163593 55.925144 6.136906 -23.828171 -152.806373 85.590232 -149.162183 0.000000 0.000000 -0.000000 4.793024 17.214076 -15.114151 -2.369130 -17.085041 2.593250 -0.000000 0.000000 -0.000000 2.727417 -3.023104 -4.326848 6.773742 2.765850 5.528922 
-0.794976 -0.544292 -0.561523 -9.329080 19.407643 -2.809444 0.000000 -0.000000 0.000000 3.249998 -4.625708 -0.234811 4.738974 -0.181150 3.662463 0.000000 0.000000 0.000000 4.025861 -0.763774 4.780575 -2.232894 -10.471103 -2.580560 2.754345 0.324867 3.499385 -1.994859 -10.798907 -0.357492 -90.134780 -6.252541 -27.377334 -1.688459 18.148260 0.100822 4.083867 -0.927229 4.051888 17.952920 -11.111920 4.667074 56.888672 5.021549 -21.986051 -155.311564 85.238771 -151.718656 0.000000 0.000000 -0.000000 4.756287 16.733389 -15.021301 -2.279091 -17.745359 1.694620 -0.000000 0.000000 -0.000000 3.084438 -3.743681 -4.537248 6.293391 2.373171 5.672875 
-0.831263 -0.598780 -0.619414 -9.361413 19.283670 -2.397757 0.000000 -0.000000 0.000000 3.707059 -4.237519 -0.457780 4.805736 -0.149375 3.788838 0.000000 0.000000 0.000000 4.052730 -0.716759 4.854358 -2.446364 -10.692215 -2.388104 2.735814 0.408691 3.661502 -2.455278 -9.887514 -0.589479 -90.295530 -6.259395 -27.809549 -1.687637 18.152435 0.135127 4.133047 -0.894025 4.140186 17.906248 -10.886296 5.204380 57.777666 3.424252 -19.836217 -134.910942 87.037712 -131.328874 0.000000 0.000000 -0.000000 4.710084 16.345065 -14.936143 -2.181085 -18.309551 0.856595 -0.000000 0.000000 -0.000000 3.376548 -4.348950 -4.772502 5.910809 1.986188 5.844588 
-0.863371 -0.652620 -0.670789 -9.397462 19.310154 -2.116449 0.000000 -0.000000 0.000000 4.041768 -4.006516 -0.756493 4.934538 -0.126377 3.929880 0.000000 0.000000 0.000000 4.127583 -0.692890 4.952494 -2.668968 -10.796366 -2.206105 2.768868 0.476591 3.791373 -2.704144 -9.061655 -0.860491 -90.661061 -6.175708 -28.044938 -1.707077 18.160216 0.138356 4.248387 -0.874338 4.254174 17.695688 -10.489742 5.673526 58.403105 2.035409 -18.170871 -93.640653 87.803028 -90.081156 0.000000 0.000000 -0.000000 4.706473 16.094907 -14.816740 -2.091912 -18.748635 0.184116 -0.000000 0.000000 -0.000000 3.609211 -4.840117 -4.935126 5.671733 1.707520 5.990542 
-0.891687 -0.706736 -0.718377 -9.443411 19.355697 -1.944839 0.000000 -0.000000 0.000000 4.277624 -3.893395 -0.971258 5.063452 -0.114827 4.075597 0.000000 0.000000 0.000000 4.215934 -0.690221 5.044553 -2.855798 -10.935528 -2.071417 2.819669 0.515702 3.889043 -2.832080 -8.416826 -1.091572 -90.913737 -5.968076 -28.040443 -1.726738 18.245454 0.132872 4.359287 -0.870679 4.358564 17.387147 -10.051611 6.002312 58.851690 0.962217 -16.903173 -98.268322 87.774497 -94.772223 0.000000 0.000000 -0.000000 4.724375 15.928817 -14.716853 -2.020007 -19.033483 -0.289819 -0.000000 0.000000 -0.000000 3.773269 -5.189303 -5.007851 5.566706 1.553565 6.064928 
-0.916866 -0.760789 -0.763982 -9.486596 19.349526 -1.827735 0.000000 -0.000000 0.000000 4.426599 -3.890334 -1.026852 5.147567 -0.114103 4.208114 0.000000 0.000000 0.000000 4.280112 -0.692621 5.133003 -2.955123 -11.099605 -1.969308 2.857072 0.513699 3.947547 -2.937272 -7.891071 -1.278771 -90.816747 -5.767481 -27.772345 -1.753043 18.296933 0.114223 4.424593 -0.879078 4.441490 17.058433 -9.747028 6.197640 59.093112 0.312250 -16.074924 -139.945225 86.637579 -136.510102 0.000000 0.000000 -0.000000 4.748575 15.802911 -14.644156 -1.967837 -19.218383 -0.607112 -0.000000 0.000000 -0.000000 3.877613 -5.348342 -5.023846 5.546464 1.470991 6.070391 
-0.939899 -0.814061 -0.808768 -9.524350 19.304076 -1.737424 0.000000 -0.000000 0.000000 4.517456 -3.934969 -0.960043 5.168147 -0.124500 4.321199 0.000000 0.000000 0.000000 4.305339 -0.699349 5.207845 -3.001654 -11.272286 -1.918866 2.866284 0.486237 3.990477 -3.074040 -7.450448 -1.430317 -90.465679 -5.575116 -27.443039 -1.777289 18.301881 0.091098 4.435284 -0.888565 4.515829 16.800913 -9.623317 6.242440 59.202177 0.142745 -15.562255 -161.561853 83.454319 -158.167091 0.000000 0.000000 -0.000000 4.772327 15.702860 -14.609939 -1.946918 -19.350040 -0.786073 0.000000 0.000000 -0.000000 3.943036 -5.299972 -5.000155 5.579079 1.417087 6.005735 
-0.961320 -0.866402 -0.853517 -9.550577 19.251534 -1.664338 0.000000 -0.000000 0.000000 4.564909 -3.983030 -0.851482 5.131882 -0.142140 4.411759 0.000000 0.000000 0.000000 4.292858 -0.706950 5.260114 -3.021013 -11.421887 -1.883843 2.846914 0.438968 4.009072 -3.272087 -7.015999 -1.570818 -89.949691 -5.460267 -27.118912 -1.793788 18.323000 0.076345 4.400792 -0.905994 4.567095 16.609981 -9.534357 6.187538 59.248130 0.246932 -15.349979 -169.172198 79.608376 -165.799796 0.000000 0.000000 -0.000000 4.794271 15.624128 -14.600863 -1.942765 -19.450208 -0.873081 0.000000 0.000000 -0.000000 3.974525 -5.133364 -4.969041 5.644470 1.380465 5.905178 
-0.982174 -0.918297 -0.898827 -9.572012 19.231314 -1.611596 0.000000 -0.000000 0.000000 4.582499 -4.042612 -0.747841 5.059188 -0.165159 4.483202 0.000000 0.000000 0.000000 4.254161 -0.717634 5.304758 -3.038325 -11.562162 -1.847226 2.806414 0.380789 4.015643 -3.518577 -6.586531 -1.696726 -89.350977 -5.438677 -26.825885 -1.806208 18.327754 0.064984 4.336045 -0.933184 4.598884 16.479144 -9.446778 6.077193 59.245263 0.513622 -15.390304 -172.273246 76.332795 -168.889598 0.000000 0.000000 -0.000000 4.818084 15.564824 -14.608513 -1.943329 -19.520891 -0.898476 0.000000 0.000000 -0.000000 3.989317 -4.914875 -4.931508 5.721365 1.355588 5.780515 
-1.003810 -0.970027 -0.945043 -9.592558 19.245336 -1.576249 0.000000 -0.000000 0.000000 4.583703 -4.114739 -0.645660 4.966092 -0.192329 4.552398 0.000000 0.000000 0.000000 4.203744 -0.730548 5.346303 -3.064656 -11.680698 -1.826330 2.755520 0.317619 4.020760 -3.776601 -6.170904 -1.818538 -88.752702 -5.484360 -26.578671 -1.814043 18.330460 0.055032 4.257302 -0.967417 4.620694 16.401949 -9.327171 5.934879 59.281444 0.791808 -15.528563 -174.150200 73.201875 -170.757926 0.000000 0.000000 -0.000000 4.842166 15.515286 -14.642530 -1.949541 -19.575752 -0.869007 0.000000 0.000000 -0.000000 3.990472 -4.680589 -4.902661 5.800252 1.341180 5.673013 
-1.027272 -1.021502 -0.992821 -9.613676 19.289466 -1.555093 0.000000 -0.000000 0.000000 4.586829 -4.192966 -0.565559 4.866316 -0.220986 4.619230 0.000000 0.000000 0.000000 4.150851 -0.744485 5.388402 -3.083283 -11.771132 -1.831177 2.701917 0.252947 4.024747 -4.024824 -5.781519 -1.929096 -88.157590 -5.590312 -26.334514 -1.816561 18.319085 0.049455 4.176058 -1.004551 4.643250 16.381218 -9.111045 5.773852 59.363741 1.167499 -15.818919 -175.399739 70.312991 -171.998803 0.000000 0.000000 -0.000000 4.865455 15.480149 -14.686028 -1.952510 -19.625198 -0.816044 0.000000 0.000000 -0.000000 3.984800 -4.446881 -4.879228 5.878128 1.333015 5.585422 
